<svg width="33" height="26" viewBox="0 0 33 26" fill="none" xmlns="http://www.w3.org/2000/svg">
<path d="M16.95 13.2541C17.7504 12.5613 18.3923 11.7044 18.8323 10.7416C19.2723 9.77881 19.5 8.73264 19.5 7.67407C19.5 5.68495 18.7098 3.77729 17.3033 2.37077C15.8968 0.964249 13.9891 0.174073 12 0.174073C10.0109 0.174073 8.10322 0.964249 6.6967 2.37077C5.29018 3.77729 4.5 5.68495 4.5 7.67407C4.49999 8.73264 4.7277 9.77881 5.16769 10.7416C5.60767 11.7044 6.24963 12.5613 7.05 13.2541C4.95021 14.2049 3.1687 15.7404 1.91847 17.6769C0.668243 19.6134 0.00220778 21.869 0 24.1741C0 24.5719 0.158035 24.9534 0.43934 25.2347C0.720644 25.516 1.10218 25.6741 1.5 25.6741C1.89782 25.6741 2.27936 25.516 2.56066 25.2347C2.84196 24.9534 3 24.5719 3 24.1741C3 21.7871 3.94821 19.4979 5.63604 17.8101C7.32387 16.1223 9.61305 15.1741 12 15.1741C14.3869 15.1741 16.6761 16.1223 18.364 17.8101C20.0518 19.4979 21 21.7871 21 24.1741C21 24.5719 21.158 24.9534 21.4393 25.2347C21.7206 25.516 22.1022 25.6741 22.5 25.6741C22.8978 25.6741 23.2794 25.516 23.5607 25.2347C23.842 24.9534 24 24.5719 24 24.1741C23.9978 21.869 23.3318 19.6134 22.0815 17.6769C20.8313 15.7404 19.0498 14.2049 16.95 13.2541ZM12 12.1741C11.11 12.1741 10.24 11.9102 9.49993 11.4157C8.75991 10.9212 8.18314 10.2184 7.84254 9.39615C7.50195 8.57388 7.41283 7.66908 7.58647 6.79617C7.7601 5.92325 8.18868 5.12143 8.81802 4.49209C9.44736 3.86276 10.2492 3.43417 11.1221 3.26054C11.995 3.08691 12.8998 3.17602 13.7221 3.51661C14.5443 3.85721 15.2471 4.43399 15.7416 5.17401C16.2361 5.91403 16.5 6.78406 16.5 7.67407C16.5 8.86755 16.0259 10.0121 15.182 10.8561C14.3381 11.7 13.1935 12.1741 12 12.1741ZM26.61 12.6541C27.57 11.5731 28.197 10.2377 28.4157 8.80858C28.6344 7.37951 28.4354 5.91768 27.8427 4.59907C27.2499 3.28046 26.2887 2.16127 25.0747 1.37621C23.8607 0.591147 22.4457 0.173686 21 0.174073C20.6022 0.174073 20.2206 0.332108 19.9393 0.613412C19.658 0.894717 19.5 1.27625 19.5 1.67407C19.5 2.0719 19.658 2.45343 19.9393 2.73473C20.2206 3.01604 20.6022 3.17407 21 3.17407C22.1935 3.17407 23.3381 3.64818 24.182 4.49209C25.0259 5.33601 25.5 6.4806 25.5 7.67407C25.4979 8.46193 25.2889 9.23543 24.8941 9.9172C24.4992 10.599 23.9323 11.1651 23.25 11.5591C23.0276 11.6874 22.8419 11.8706 22.7105 12.0912C22.5792 12.3118 22.5067 12.5624 22.5 12.8191C22.4937 13.0737 22.5524 13.3258 22.6705 13.5515C22.7886 13.7772 22.9622 13.9691 23.175 14.1091L23.76 14.4991L23.955 14.6041C25.7631 15.4616 27.2885 16.8181 28.3515 18.5135C29.4145 20.209 29.9708 22.173 29.955 24.1741C29.955 24.5719 30.113 24.9534 30.3943 25.2347C30.6756 25.516 31.0572 25.6741 31.455 25.6741C31.8528 25.6741 32.2344 25.516 32.5157 25.2347C32.797 24.9534 32.955 24.5719 32.955 24.1741C32.9673 21.8722 32.3907 19.6055 31.2802 17.5892C30.1697 15.5729 28.562 13.874 26.61 12.6541Z" fill="#FFC748"/>
</svg>
