<svg width="66" height="67" viewBox="0 0 66 67" fill="none" xmlns="http://www.w3.org/2000/svg">
<g clip-path="url(#clip0_1_2679)">
<path d="M49.7834 48.1874H16.2165C15.5987 48.1874 15.0977 47.6832 15.0977 47.0624C15.0977 46.4411 15.5991 45.9373 16.2165 45.9373H49.7834C50.4011 45.9373 50.9021 46.4415 50.9021 47.0624C50.9021 47.6832 50.4011 48.1874 49.7834 48.1874Z" fill="#333333"/>
<path d="M47.6853 48.0468H41.1117C40.494 48.0468 39.9929 47.5425 39.9929 46.9217V25.1139C39.9929 24.8106 40.1151 24.5198 40.3309 24.3082L46.3483 18.4076C46.5575 18.2027 46.8377 18.0881 47.1292 18.0881H47.6849C48.3027 18.0881 48.8037 18.5924 48.8037 19.2132V46.9212C48.8041 47.5425 48.303 48.0463 47.6853 48.0463L47.6853 48.0468ZM42.2305 45.7966H46.566L46.5664 21.3376L42.2309 25.5892L42.2305 45.7966Z" fill="#333333"/>
<path d="M35.6573 48.0468H29.0836C28.4659 48.0468 27.9648 47.5425 27.9648 46.9217V33.6674C27.9648 33.3641 28.087 33.0733 28.3028 32.8618L34.8674 26.425C35.0766 26.2202 35.3568 26.1056 35.6483 26.1056C36.266 26.1056 36.7761 26.6099 36.7761 27.2307V46.9217C36.7761 47.5429 36.2746 48.0468 35.6573 48.0468ZM30.2024 45.7966H34.538V29.8911L30.2024 34.1427V45.7966Z" fill="#333333"/>
<path d="M23.909 47.7654H17.3353C16.7176 47.7654 16.2166 47.2612 16.2166 46.6403V41.1607C16.2166 40.8574 16.3387 40.5666 16.5545 40.3551L22.5841 34.4422C22.7932 34.2374 23.0734 34.1228 23.3649 34.1228H23.9085C24.5263 34.1228 25.0273 34.6271 25.0273 35.2479L25.0277 46.6395C25.0277 47.2608 24.5266 47.765 23.9089 47.765L23.909 47.7654ZM18.4541 45.5148H22.7897L22.7901 37.3832L18.4541 41.6348L18.4541 45.5148Z" fill="#333333"/>
</g>
<circle cx="33" cy="33.9246" r="32" stroke="#43BEA2" stroke-width="2"/>
<defs>
<clipPath id="clip0_1_2679">
<rect width="36" height="30" fill="white" transform="translate(15 17.9246)"/>
</clipPath>
</defs>
</svg>
