<svg width="36" height="31" viewBox="0 0 36 31" fill="none" xmlns="http://www.w3.org/2000/svg">
<path d="M25.5 27.9241H7.5C6.30653 27.9241 5.16193 27.45 4.31802 26.6061C3.47411 25.7621 3 24.6175 3 23.4241V11.4241C3 11.0262 2.84196 10.6447 2.56066 10.3634C2.27936 10.0821 1.89782 9.92407 1.5 9.92407C1.10218 9.92407 0.720644 10.0821 0.43934 10.3634C0.158035 10.6447 0 11.0262 0 11.4241L0 23.4241C0 25.4132 0.790176 27.3209 2.1967 28.7274C3.60322 30.1339 5.51088 30.9241 7.5 30.9241H25.5C25.8978 30.9241 26.2794 30.766 26.5607 30.4847C26.842 30.2034 27 29.8219 27 29.4241C27 29.0262 26.842 28.6447 26.5607 28.3634C26.2794 28.0821 25.8978 27.9241 25.5 27.9241ZM31.5 0.924072H10.5C9.30653 0.924072 8.16193 1.39818 7.31802 2.24209C6.47411 3.08601 6 4.2306 6 5.42407V20.4241C6 21.6175 6.47411 22.7621 7.31802 23.6061C8.16193 24.45 9.30653 24.9241 10.5 24.9241H31.5C32.6935 24.9241 33.8381 24.45 34.682 23.6061C35.5259 22.7621 36 21.6175 36 20.4241V5.42407C36 4.2306 35.5259 3.08601 34.682 2.24209C33.8381 1.39818 32.6935 0.924072 31.5 0.924072ZM30.885 3.92407L22.065 12.7441C21.9256 12.8847 21.7597 12.9963 21.5769 13.0724C21.3941 13.1486 21.198 13.1878 21 13.1878C20.802 13.1878 20.6059 13.1486 20.4231 13.0724C20.2403 12.9963 20.0744 12.8847 19.935 12.7441L11.115 3.92407H30.885ZM33 20.4241C33 20.8219 32.842 21.2034 32.5607 21.4847C32.2794 21.766 31.8978 21.9241 31.5 21.9241H10.5C10.1022 21.9241 9.72064 21.766 9.43934 21.4847C9.15804 21.2034 9 20.8219 9 20.4241V5.97907L17.82 14.7991C18.6638 15.6418 19.8075 16.1151 21 16.1151C22.1925 16.1151 23.3362 15.6418 24.18 14.7991L33 5.97907V20.4241Z" fill="#FFA24A"/>
</svg>
